<?xml version="1.0" encoding="UTF-8" standalone="no"?>
<!DOCTYPE svg PUBLIC "-//W3C//DTD SVG 1.1//EN" "http://www.w3.org/Graphics/SVG/1.1/DTD/svg11.dtd">
<svg width="100%" height="100%" viewBox="0 0 279 128" version="1.1" xmlns="http://www.w3.org/2000/svg" xmlns:xlink="http://www.w3.org/1999/xlink" xml:space="preserve" xmlns:serif="http://www.serif.com/" style="fill-rule:evenodd;clip-rule:evenodd;stroke-linecap:round;stroke-linejoin:round;stroke-miterlimit:1.5;">
    <g transform="matrix(1,0,0,1,-1914.62,-6.26048)">
        <g transform="matrix(0.776441,0,0,0.776441,424.078,-3.56777)">
            <g transform="matrix(0.536383,0,0,0.536383,863.3,-46.8667)">
                <g>
                    <text x="1969.4px" y="190.77px" style="font-family:'LinLibertineB', 'Linux Libertine';font-weight:700;font-size:36px;fill:rgb(0,44,102);">T<tspan x="1993.73px 2024px " y="190.77px 190.77px ">HE</tspan></text>
                    <text x="1969.4px" y="245.77px" style="font-family:'Athelas-Bold', 'Athelas';font-weight:700;font-size:64px;fill:rgb(0,44,102);">ALBER<tspan x="2168.63px " y="245.77px ">T</tspan></text>
                    <text x="1969.4px" y="309.77px" style="font-family:'Athelas-Bold', 'Athelas';font-weight:700;font-size:64px;fill:rgb(0,44,102);">LA<tspan x="2041.98px 2105.14px " y="309.77px 309.77px ">W </tspan>FIRM</text>
                </g>
            </g>
        </g>
        <g transform="matrix(0.776441,0,0,0.776441,424.078,-3.56777)">
            <g transform="matrix(-2.19362e-17,0.358245,0.579289,3.54712e-17,1790.13,-839.3)">
                <path d="M2380.39,562.972L2832.66,562.972" style="fill:rgb(228,0,60);stroke:rgb(0,44,102);stroke-width:3.34px;"/>
            </g>
        </g>
        <g transform="matrix(0.776441,0,0,0.776441,424.078,-3.56777)">
            <g transform="matrix(0.816527,0,0,0.816527,-716.098,-1440.78)">
                <text x="3487.37px" y="1850.79px" style="font-family:'JCHEadA', 'HeadLineA';font-size:36px;fill:rgb(228,0,60);">E<tspan x="3503.4px 3522.45px 3541.09px 3557.11px 3576.55px 3588.08px 3604.11px 3624.68px 3643.31px 3659.34px " y="1850.79px 1850.79px 1850.79px 1850.79px 1850.79px 1850.79px 1850.79px 1850.79px 1850.79px 1850.79px ">XPERIENCE.</tspan></text>
                <text x="3487.37px" y="1886.79px" style="font-family:'JCHEadA', 'HeadLineA';font-size:36px;fill:rgb(228,0,60);">D<tspan x="3507.16px 3523.19px 3542.98px 3554.51px 3573.14px 3592.58px 3609.91px 3621.44px 3641.59px 3662.15px " y="1886.79px 1886.79px 1886.79px 1886.79px 1886.79px 1886.79px 1886.79px 1886.79px 1886.79px 1886.79px ">EDICATION.</tspan></text>
                <text x="3487.37px" y="1922.79px" style="font-family:'JCHEadA', 'HeadLineA';font-size:36px;fill:rgb(228,0,60);">S<tspan x="3504.91px 3525.06px 3543.69px 3562.32px 3578.35px 3595.89px 3613.43px " y="1922.79px 1922.79px 1922.79px 1922.79px 1922.79px 1922.79px 1922.79px ">UCCESS.</tspan></text>
            </g>
        </g>
        <g transform="matrix(0.776441,0,0,0.776441,424.078,-3.56777)">
            <g transform="matrix(0.309904,3.79523e-17,6.13696e-17,-0.501121,1183.28,409.647)">
                <path d="M2380.39,562.972L2832.66,562.972" style="fill:rgb(0,44,102);stroke:rgb(228,0,60);stroke-width:3.34px;"/>
            </g>
        </g>
        <g transform="matrix(0.776441,0,0,0.776441,424.078,-3.56777)">
            <g transform="matrix(0.286236,3.50538e-17,5.66826e-17,-0.462849,1239.62,393.757)">
                <path d="M2380.39,562.972L2832.66,562.972" style="fill:rgb(0,44,102);stroke:rgb(228,0,60);stroke-width:3.34px;"/>
            </g>
        </g>
    </g>
</svg>
